<svg version="1.1" viewBox="0 0 260 312.45" xmlns="http://www.w3.org/2000/svg">
 <g transform="translate(-143.76 -37.006)">
  <g transform="matrix(6.6565 0 0 6.6565 -813.15 -209.33)" stroke-width=".062961">
   <path class="a" d="m180.32 43.217c-4.3586-6.2383-12.967-8.0874-19.191-4.1218l-10.929 6.9671a12.54 12.54 0 0 0-5.6679 8.4 13.208 13.208 0 0 0 1.3026 8.4788 12.576 12.576 0 0 0-1.8763 4.6868 13.366 13.366 0 0 0 2.2832 10.107c4.3586 6.2391 12.968 8.0886 19.191 4.1218l10.931-6.9671a12.537 12.537 0 0 0 5.6654-8.4 13.211 13.211 0 0 0-1.2992-8.4792 12.581 12.581 0 0 0 1.875-4.6864 13.36 13.36 0 0 0-2.2828-10.107" fill="#ff3e00"/>
   <path class="b" d="m160.06 78.322a8.6838 8.6838 0 0 1-9.3195-3.4546 8.0367 8.0367 0 0 1-1.373-6.077 7.6037 7.6037 0 0 1 0.2611-1.0205l0.20578-0.62865 0.56033 0.41114a14.096 14.096 0 0 0 4.2748 2.1374l0.40611 0.12322-0.0373 0.40569a2.4492 2.4492 0 0 0 0.44131 1.624 2.6152 2.6152 0 0 0 2.808 1.0415 2.409 2.409 0 0 0 0.67056-0.29337l10.931-6.968a2.2757 2.2757 0 0 0 1.0272-1.5218 2.4283 2.4283 0 0 0-0.41407-1.8319 2.6169 2.6169 0 0 0-2.808-1.0423 2.4119 2.4119 0 0 0-0.67056 0.29337l-4.1713 2.6592a7.988 7.988 0 0 1-2.2212 0.97483 8.6833 8.6833 0 0 1-9.3195-3.4546 8.0346 8.0346 0 0 1-1.3734-6.077 7.5404 7.5404 0 0 1 3.4102-5.0502l10.932-6.9667a7.9755 7.9755 0 0 1 2.2212-0.97608 8.6838 8.6838 0 0 1 9.3195 3.4546 8.0367 8.0367 0 0 1 1.3734 6.077 7.7337 7.7337 0 0 1-0.26152 1.0205l-0.20577 0.62865-0.55992-0.4103a14.088 14.088 0 0 0-4.2748-2.1374l-0.40653-0.12322 0.0377-0.40569a2.4555 2.4555 0 0 0-0.44089-1.6253 2.6156 2.6156 0 0 0-2.808-1.0415 2.409 2.409 0 0 0-0.67056 0.29337l-10.934 6.9684a2.2719 2.2719 0 0 0-1.0264 1.5213 2.4266 2.4266 0 0 0 0.41323 1.8323 2.6173 2.6173 0 0 0 2.808 1.0423 2.4195 2.4195 0 0 0 0.67056-0.29337l4.1709-2.6579a7.9537 7.9537 0 0 1 2.2212-0.97566 8.6829 8.6829 0 0 1 9.3191 3.4546 8.0346 8.0346 0 0 1 1.3734 6.077 7.5438 7.5438 0 0 1-3.4073 5.0518l-10.932 6.9646a7.97 7.97 0 0 1-2.2212 0.97608" fill="#fff"/>
  </g>
 </g>
</svg>